<svg xmlns="http://www.w3.org/2000/svg" width="25" height="24" viewBox="0 0 25 24" fill="none">
  <g clip-path="url(#clip0_13_2378)">
    <path d="M4.30957 19C4.30957 19.5304 4.52028 20.0391 4.89536 20.4142C5.27043 20.7893 5.77914 21 6.30957 21C6.84 21 7.34871 20.7893 7.72378 20.4142C8.09886 20.0391 8.30957 19.5304 8.30957 19C8.30957 18.4696 8.09886 17.9609 7.72378 17.5858C7.34871 17.2107 6.84 17 6.30957 17C5.77914 17 5.27043 17.2107 4.89536 17.5858C4.52028 17.9609 4.30957 18.4696 4.30957 19Z" stroke="white" stroke-width="1.5" stroke-linecap="round" stroke-linejoin="round"/>
    <path d="M15.3096 19C15.3096 19.5304 15.5203 20.0391 15.8954 20.4142C16.2704 20.7893 16.7791 21 17.3096 21C17.84 21 18.3487 20.7893 18.7238 20.4142C19.0989 20.0391 19.3096 19.5304 19.3096 19C19.3096 18.4696 19.0989 17.9609 18.7238 17.5858C18.3487 17.2107 17.84 17 17.3096 17C16.7791 17 16.2704 17.2107 15.8954 17.5858C15.5203 17.9609 15.3096 18.4696 15.3096 19Z" stroke="white" stroke-width="1.5" stroke-linecap="round" stroke-linejoin="round"/>
    <path d="M17.3096 17H6.30957V3H4.30957" stroke="white" stroke-width="1.5" stroke-linecap="round" stroke-linejoin="round"/>
    <path d="M6.30957 5L20.3096 6L19.3096 13H6.30957" stroke="white" stroke-width="1.5" stroke-linecap="round" stroke-linejoin="round"/>
  </g>
  <defs>
    <clipPath id="clip0_13_2378">
      <rect width="24" height="24" fill="white" transform="translate(0.30957)"/>
    </clipPath>
  </defs>
</svg>